<svg width="1024" height="683" viewBox="0 0 1024 683" fill="none" xmlns="http://www.w3.org/2000/svg">
<path d="M238.479 134.037C238.991 134.662 239.585 135.235 240.23 135.758C240.23 135.758 240.23 135.778 240.251 135.799C240.251 135.799 240.271 135.799 240.282 135.799C241.07 136.465 241.961 136.997 242.862 137.469C243.036 137.561 243.22 137.643 243.395 137.715C244.285 138.145 245.176 138.473 246.077 138.729C246.272 138.78 247.276 139.006 247.276 139.006C249.846 139.487 251.965 139.825 254.792 139.825C261.161 139.825 265.923 138.268 269.015 135.174C272.097 132.111 273.654 128.197 273.654 123.566C273.654 120.073 272.701 117.081 270.756 114.571C269.015 112.256 265.452 109.807 260.004 107.287C253.43 104.387 249.354 102.328 247.808 101.17C245.862 99.2546 244.92 97.0211 244.92 94.5008C244.92 91.9805 245.78 89.8495 247.532 88.1079C249.672 86.5609 252.18 85.772 255.078 85.772C258.345 85.772 260.772 86.2843 262.328 87.2268C264.428 88.3538 265.011 90.4847 267.325 91.0175C269.875 91.2941 271.514 89.2553 270.991 86.7043C270.991 86.7043 270.674 85.0856 268.134 83.18C265.441 81.0183 261.366 79.9835 255.939 79.9835C249.958 79.9835 245.289 81.4281 242.002 84.3479C238.715 87.2166 237.076 90.956 237.076 95.3922C237.076 98.8652 238.223 101.98 240.538 104.684C242.688 107.379 246.446 109.797 251.863 111.928C258.447 114.663 262.523 116.794 264.09 118.321C265.441 119.673 266.117 121.497 266.117 123.863C266.117 126.742 265.155 129.16 263.209 131.117C261.284 133.053 258.458 134.006 254.802 134.006C252.795 134.006 251.023 133.781 249.446 133.361C249.405 133.361 249.354 133.361 249.313 133.33C247.788 132.92 246.487 132.285 245.361 131.465C245.094 131.26 244.808 131.076 244.613 130.871C242.964 129.211 242.473 126.998 241.459 126.005C239.462 124.048 235.428 125.226 235.991 128.924C235.991 128.924 236.452 131.578 238.51 134.006L238.479 134.037Z" fill="#FF9149"/>
<path d="M150.968 108.403C152.289 110.606 153.375 114.499 153.375 117.132V134.16C153.375 136.731 155.013 138.852 157.01 138.852C159.007 138.852 160.645 136.731 160.645 134.16V117.132C160.645 114.499 161.731 110.606 163.082 108.403L176.271 86.5097C177.582 84.2967 177.009 82.7292 175.196 82.4833C172.616 82.1452 170.947 83.723 169.257 86.4687L160.205 101.181C158.853 103.353 156.641 103.394 155.249 101.181L146.063 86.8887C145.695 86.3047 145.285 85.7515 144.835 85.229C142.95 83.0571 141.353 82.4833 139.315 82.4833C137.001 82.4833 136.202 84.2762 137.544 86.4687L150.968 108.403Z" fill="#FF9149"/>
<path d="M861.092 108.403C862.413 110.606 863.498 114.499 863.498 117.132V134.16C863.498 136.731 865.137 138.852 867.133 138.852C869.13 138.852 870.769 136.731 870.769 134.16V117.132C870.769 114.499 871.854 110.606 873.206 108.403L886.395 86.5097C887.706 84.2967 887.132 82.7292 885.32 82.4833C882.739 82.1452 881.07 83.723 879.381 86.4687L870.328 101.181C868.977 103.353 866.765 103.394 865.372 101.181L856.187 86.8887C855.818 86.3047 855.409 85.7515 854.958 85.229C853.074 83.0571 851.477 82.4833 849.439 82.4833C847.125 82.4833 846.326 84.2762 847.667 86.4687L861.092 108.403Z" fill="#FF9149"/>
<path d="M286.74 138.104C288.799 138.104 290.529 135.983 290.529 133.412V117.214C290.529 114.643 292.639 112.522 295.188 112.522H311.685C314.245 112.522 316.355 114.643 316.355 117.214V133.412C316.355 135.983 318.003 138.104 320 138.104C321.997 138.104 323.625 135.983 323.625 133.412V86.4482C323.625 83.8459 321.976 81.7354 320 81.7354C318.024 81.7354 316.355 83.8459 316.355 86.4482V102.041C316.355 104.633 314.245 106.754 311.685 106.754H295.188C292.639 106.754 290.529 104.633 290.529 102.041V86.4482C290.529 83.8459 288.788 81.7354 286.74 81.7354C284.692 81.7354 282.982 83.8459 282.982 86.4482V133.412C282.982 135.983 284.672 138.104 286.74 138.104Z" fill="#FF9149"/>
<path d="M340.265 138.104C342.333 138.104 344.013 135.983 344.013 133.412V86.4482C344.013 83.8459 342.333 81.7354 340.265 81.7354C338.197 81.7354 336.476 83.8459 336.476 86.4482V133.412C336.476 135.983 338.197 138.104 340.265 138.104Z" fill="#FF9149"/>
<path d="M360.97 138.094H372.818C380.754 138.094 386.652 136.465 390.543 133.176C396.728 128.095 399.821 120.278 399.821 109.623C399.821 98.9677 396.82 91.2019 390.82 86.3867C387.164 83.2824 380.846 81.7252 371.968 81.7252H360.97C358.38 81.7252 356.25 83.8459 356.25 86.4482V133.401C356.25 135.973 358.38 138.094 360.97 138.094ZM363.817 92.2367C363.817 89.6651 365.937 87.5444 368.507 87.5444H372.255C379.238 87.5444 383.949 88.7943 386.458 91.3351C390.164 95.0028 391.987 101.293 391.987 110.196C391.987 118.136 390.431 123.679 387.359 126.752C384.246 130.246 379.238 131.988 372.255 131.988H368.507C365.937 131.988 363.817 129.877 363.817 127.295V92.2264V92.2367Z" fill="#FF9149"/>
<path d="M404.757 138.104C406.559 138.104 408.893 136.157 409.866 133.801L412.641 127.05C413.645 124.673 416.563 122.716 419.144 122.716H434.749C437.32 122.716 440.187 124.714 441.088 127.111L443.587 133.729C444.498 136.137 446.997 138.114 449.157 138.114C451.318 138.114 452.342 136.137 451.42 133.729L433.541 86.1511C432.62 83.7537 430.213 81.7559 428.093 81.7559C425.974 81.7559 423.537 83.6922 422.574 86.0691L403.159 133.77C402.197 136.168 402.893 138.114 404.757 138.114V138.104ZM418.54 112.532L425.482 95.0848C426.476 92.6874 427.991 92.7079 428.872 95.1258L435.466 112.512C436.367 114.909 434.995 116.876 432.415 116.876H421.458C418.888 116.876 417.557 114.93 418.54 112.532Z" fill="#FF9149"/>
<path d="M482.99 134.877C486.277 138.176 490.65 139.825 496.067 139.825C502.088 139.825 507.208 137.715 511.437 133.432C513.761 135.748 515.349 137.315 516.301 137.745C517.263 138.186 520.714 138.083 520.714 138.083C523.284 138.083 523.889 136.588 522.076 134.795C522.076 134.795 518.717 131.404 516.393 128.504C520.827 122.306 523.049 114.848 523.049 106.139H521.062C518.502 106.139 517.601 107.666 516.895 111.2C516.598 112.737 516.096 115.37 515.502 117.47C514.918 119.765 513.966 121.896 512.614 123.874C508.365 118.823 504.177 112.614 500.122 105.268C503.613 103.332 506.327 100.925 508.262 97.9944C510.177 95.4741 511.171 92.7796 511.171 89.8598C511.171 87.3395 510.065 84.9934 507.976 82.8829C506.02 80.967 503.142 79.9835 499.261 79.9835C495.38 79.9835 492.247 81.131 489.964 83.4669C487.434 85.772 486.205 88.5074 486.205 91.6117C486.205 92.7899 486.472 94.132 487.045 95.6995C487.434 97.0314 488.622 99.357 490.537 102.646C490.844 103.127 489.39 104.715 487.26 106.129C487.26 106.129 483.871 108.444 481.536 111.938C479.007 115.042 477.757 118.638 477.757 122.685C477.757 127.531 479.529 131.598 482.99 134.877ZM495.186 86.6736C496.159 85.7105 497.418 85.2085 498.954 85.2085C499.927 85.2085 500.961 85.4749 502.047 85.9871C503.163 86.5096 504.105 87.3907 504.617 88.5074C504.904 89.1324 505.047 89.7881 505.047 90.4643C505.047 91.8269 504.474 93.3534 503.296 95.1053C501.965 97.0416 499.948 98.8038 497.203 100.341C494.694 96.6625 493.425 93.5583 493.425 91.0482C493.425 89.5012 494.029 88.0464 495.176 86.6838L495.186 86.6736ZM487.055 114.591C488.632 111.846 490.936 109.827 494.049 108.455C497.336 114.469 501.985 121.363 507.986 129.088C503.542 132.397 499.743 134.026 496.66 134.026C493.373 134.026 490.547 132.879 488.243 130.523C485.919 128.412 484.751 125.697 484.751 122.408C484.751 119.888 485.509 117.286 487.055 114.591Z" fill="#FF9149"/>
<path d="M613.141 139.835C620.298 139.835 626.033 137.264 630.293 131.988C634.716 126.978 636.949 119.622 636.949 109.92C636.949 100.218 634.716 93.1792 630.293 87.5546C625.828 82.5243 620.114 80.004 613.141 80.004C606.167 80.004 600.76 82.5243 596.296 87.5546C591.657 92.3698 589.312 99.818 589.312 109.92C589.312 120.021 591.565 126.978 596.029 131.988C600.443 137.264 606.198 139.835 613.151 139.835H613.141ZM602.112 91.038C604.836 87.5546 608.512 85.7822 613.141 85.7822C618.005 85.7822 621.66 87.5444 624.179 91.038C627.671 95.2999 629.422 101.611 629.422 109.92C629.422 118.228 627.681 124.345 624.179 128.832C621.66 132.285 618.005 134.037 613.141 134.037C608.277 134.037 604.836 132.295 602.112 128.832C598.62 124.345 596.879 118.034 596.879 109.92C596.879 101.806 598.62 95.2897 602.112 91.038Z" fill="#FF9149"/>
<path d="M649.267 138.094C651.018 138.094 652.442 135.973 652.442 133.412V100.074C652.442 97.4924 653.261 97.3285 654.254 99.6951L664.893 125.359C665.877 127.736 668.334 129.672 670.321 129.672C672.307 129.672 674.703 127.715 675.645 125.318L685.896 98.8857C686.838 96.5089 687.596 96.6625 687.596 99.2033V133.422C687.596 135.983 688.998 138.104 690.76 138.104C692.521 138.104 693.985 135.983 693.985 133.422V86.4584C693.985 83.8562 692.408 81.7354 690.504 81.7354C688.599 81.7354 686.244 83.682 685.251 86.0793L672.502 117.808C671.56 120.175 669.911 120.175 668.887 117.829L655.176 86.0589C654.172 83.6615 651.694 81.7354 649.687 81.7354C647.68 81.7354 646.042 83.8562 646.042 86.4584V133.422C646.042 135.983 647.475 138.104 649.267 138.104V138.094Z" fill="#FF9149"/>
<path d="M710.083 138.104C712.192 138.104 713.871 135.983 713.871 133.412V120.39C713.871 117.819 715.991 115.718 718.572 115.718H720.835C727.603 115.718 732.856 113.967 736.533 110.514C740.198 107.02 742.042 102.553 742.042 97.1338C742.042 91.3351 740.198 87.1551 736.533 84.6245C733.993 82.719 729.17 81.7252 722.012 81.7252H710.984C708.424 81.7252 706.325 83.8459 706.325 86.4482V133.412C706.325 135.983 708.045 138.104 710.072 138.104H710.083ZM713.871 92.2264C713.871 89.6549 715.991 87.5444 718.572 87.5444H722.309C726.549 87.5444 729.774 88.3128 731.884 89.8598C733.624 91.1917 734.515 93.7324 734.515 97.4207C734.515 100.699 733.522 103.639 731.597 106.129C729.457 108.875 725.207 110.196 718.817 110.196H718.582C716.001 110.196 713.882 108.106 713.882 105.535V92.2264H713.871Z" fill="#FF9149"/>
<path d="M743.045 138.104C744.94 138.104 747.244 136.157 748.237 133.801L751.012 127.05C752.005 124.673 754.893 122.716 757.463 122.716H773.089C775.68 122.716 778.516 124.714 779.438 127.111L781.937 133.729C782.848 136.137 785.367 138.114 787.507 138.114C789.647 138.114 790.692 136.137 789.77 133.729L771.84 86.1511C770.99 83.7537 768.522 81.7559 766.464 81.7559C764.406 81.7559 761.866 83.6922 760.893 86.0691L741.509 133.77C740.516 136.168 741.233 138.114 743.045 138.114V138.104ZM756.859 112.532L763.853 95.0848C764.805 92.6874 766.331 92.7079 767.242 95.1258L773.796 112.512C774.697 114.909 773.345 116.876 770.785 116.876H759.798C757.228 116.876 755.917 114.93 756.859 112.532Z" fill="#FF9149"/>
<path d="M800.492 138.104C802.417 138.104 803.994 135.983 803.994 133.412V98.0559C803.994 95.4536 805.12 95.136 806.472 97.3285L829.409 134.119C830.73 136.311 833.475 138.094 835.502 138.094C837.53 138.094 839.117 135.973 839.117 133.401V86.4379C839.117 83.8357 837.632 81.7252 835.789 81.7252C833.946 81.7252 832.471 83.8357 832.471 86.4379V121.507C832.471 124.068 831.324 124.406 829.952 122.234L806.799 85.69C805.427 83.5078 802.662 81.7354 800.645 81.7354C798.628 81.7354 797.02 83.8459 797.02 86.4482V133.412C797.02 135.983 798.607 138.104 800.492 138.104Z" fill="#FF9149"/>
<path d="M0 0V683H1024V0H0ZM1014.04 673.042H9.97376V9.93775H1014.05V673.031L1014.04 673.042Z" fill="#FF9149"/>
<path d="M938.68 56.9115H85.3402V626.088H938.68V56.9115ZM928.707 616.11H95.2934V66.88H928.707V616.11Z" fill="#FF9149"/>
<path d="M512 151.412L337.234 254.253H150.764V433.552H337.091L512 536.505L686.899 433.552H873.247V254.253H686.787L512.01 151.412H512ZM512 162.969L667.136 254.263H356.864L511.99 162.969H512ZM512 524.939L356.731 433.562H667.259L512 524.939ZM863.283 423.604H160.717V264.221H863.283V423.604Z" fill="#FF9149"/>
<path d="M637.88 550.193C636.795 547.867 633.907 545.931 631.429 545.931C628.951 545.931 625.94 547.826 624.824 550.162L601.405 598.089C600.279 600.414 601.129 602.31 603.341 602.31C605.553 602.31 608.297 600.424 609.454 598.13L612.936 591.101C614.062 588.796 617.144 586.911 619.694 586.911H640.307C642.867 586.911 645.888 588.796 646.922 591.163L650.005 598.017C651.11 600.404 654.06 602.289 656.661 602.289H656.712C659.282 602.289 660.501 600.404 659.466 598.017L637.88 550.193ZM637.553 581.051H622.51C619.95 581.051 618.742 579.176 619.817 576.871L628.316 559.137C629.463 556.842 631.214 556.842 632.3 559.198L640.277 576.83C641.352 579.166 640.123 581.051 637.542 581.051H637.553Z" fill="#FF9149"/>
<path d="M706.447 548.83C703.427 546.894 697.631 545.921 689.029 545.921H674.898C672.318 545.921 670.208 548.062 670.208 550.613V597.597C670.208 600.179 672.246 602.31 674.724 602.31C677.202 602.31 679.27 600.179 679.27 597.597V584.606C679.27 582.024 681.39 579.914 683.94 579.914H687.616C695.777 579.914 702.054 578.162 706.447 574.709C710.871 571.195 713.052 566.769 713.052 561.319C713.052 555.53 710.871 551.34 706.447 548.83ZM700.498 570.324C697.979 573.05 692.838 574.392 685.189 574.392H683.94C681.39 574.392 679.27 572.302 679.27 569.71V556.442C679.27 553.83 681.39 551.74 683.94 551.74H689.367C694.497 551.74 698.307 552.498 700.856 554.055C702.976 555.387 704 557.928 704 561.626C704 564.915 702.843 567.825 700.498 570.324Z" fill="#FF9149"/>
<path d="M750.172 550.193C749.107 547.867 746.199 545.931 743.731 545.931C741.263 545.931 738.284 547.826 737.147 550.162L713.697 598.089C712.581 600.414 713.462 602.31 715.663 602.31C717.865 602.31 720.62 600.424 721.756 598.13L725.217 591.101C726.405 588.796 729.467 586.911 732.006 586.911H752.63C755.19 586.911 758.17 588.796 759.214 591.163L762.358 598.017C763.413 600.404 766.382 602.289 768.963 602.289H768.993C771.594 602.289 772.823 600.404 771.748 598.017L750.172 550.193ZM749.834 581.051H734.792C732.232 581.051 731.023 579.176 732.14 576.871L740.629 559.137C741.745 556.842 743.496 556.842 744.581 559.198L752.568 576.83C753.623 579.166 752.384 581.051 749.824 581.051H749.834Z" fill="#FF9149"/>
<path d="M830.648 545.931C828.457 545.931 826.655 548.062 826.655 550.613V585.702C826.655 588.284 825.395 588.735 823.808 586.635L795.689 549.65C794.102 547.611 790.886 545.931 788.47 545.931C786.053 545.931 784.138 548.062 784.138 550.613V597.597C784.138 600.179 786.012 602.31 788.367 602.31C790.723 602.31 792.504 600.179 792.504 597.597V562.241C792.504 559.669 793.764 559.26 795.32 561.319L823.122 598.56C824.709 600.619 827.884 602.32 830.28 602.32C832.676 602.32 834.662 600.189 834.662 597.607V550.623C834.662 548.072 832.881 545.941 830.648 545.941V545.931Z" fill="#FF9149"/>
<path d="M585.994 545.921C583.485 545.921 581.448 548.062 581.448 550.613V579.893C581.448 582.475 581.325 586.665 581.171 589.237C581.171 589.237 580.895 593.775 579.717 595.343C578.079 597.259 575.539 598.222 572.058 598.222C568.607 598.253 565.965 597.003 564.511 595.988C563.917 595.589 562.207 594.062 561.695 593.437C558.787 589.964 553.964 592.782 555.029 595.568C556.687 599.943 560.691 602.279 565.453 603.324C565.453 603.324 565.484 603.324 565.504 603.344C567.593 603.785 569.795 604.021 572.058 604.021V603.99C572.293 603.99 572.488 604.021 572.733 604.021C575.468 604.021 578.079 603.611 580.547 602.791C582.932 601.992 585.114 600.65 586.793 598.775C586.895 598.662 586.988 598.55 587.08 598.437C588.196 597.105 588.984 595.527 589.455 593.857C590.172 591.317 590.52 588.325 590.52 584.883V550.613C590.52 548.062 588.483 545.921 585.994 545.921Z" fill="#FF9149"/>
<path d="M224.051 545.921H179.057C176.466 545.921 174.356 547.242 174.356 548.82C174.356 550.398 176.466 551.73 179.057 551.73H192.666C195.256 551.73 197.366 553.82 197.366 556.442V597.587C197.366 600.168 199.332 602.299 201.748 602.299C204.165 602.299 206.07 600.168 206.07 597.587V556.442C206.07 553.82 208.189 551.73 210.76 551.73H224.051C226.611 551.73 228.751 550.408 228.751 548.82C228.751 547.232 226.611 545.921 224.051 545.921Z" fill="#FF9149"/>
<path d="M275.149 546.761C271.299 545.039 266.926 544.179 262.062 544.179C253.932 544.179 247.194 546.72 241.859 551.74C236.268 556.555 233.503 564.024 233.503 574.095C233.503 584.165 236.155 591.153 241.5 596.193C246.835 601.429 253.706 604.021 262.062 604.021C270.418 604.021 277.514 601.418 282.624 596.193C287.959 591.153 290.632 583.807 290.632 574.095C290.632 568.275 289.577 563.163 287.478 558.788C284.918 553.451 280.545 549.168 275.149 546.761ZM275.302 592.987C272.282 596.501 267.878 598.232 262.052 598.232C256.225 598.232 252.058 596.501 248.801 592.987C244.623 588.561 242.534 582.28 242.534 574.105C242.534 565.929 244.634 559.506 248.801 555.244C252.058 551.75 256.492 550.019 262.052 550.019C267.612 550.019 272.282 551.75 275.302 555.244C279.48 559.506 281.58 565.806 281.58 574.105C281.58 582.403 279.47 588.561 275.302 592.987Z" fill="#FF9149"/>
<path d="M351.785 599.134L326.287 575.529C324.383 573.787 324.342 570.919 326.236 569.136L347.32 549.158C349.174 547.375 348.611 545.91 346.01 545.91H345.641C343.04 545.91 339.446 547.386 337.572 549.158L316.099 569.689C314.235 571.472 312.719 570.867 312.719 568.255V550.603C312.719 548.052 310.671 545.91 308.183 545.91C305.695 545.91 303.657 548.052 303.657 550.603V597.587C303.657 600.168 305.695 602.299 308.183 602.299C310.671 602.299 312.719 600.168 312.719 597.587V577.65C312.719 575.047 314.276 574.392 316.14 576.154L340.664 599.072C342.548 600.834 346.204 602.299 348.774 602.299H350.536C353.137 602.299 353.69 600.845 351.785 599.134Z" fill="#FF9149"/>
<path d="M459.51 547.795C455.168 545.388 450.109 544.179 444.334 544.179C436.173 544.179 429.466 546.72 424.11 551.74C418.54 556.555 415.754 564.024 415.754 574.095C415.754 584.165 418.406 591.153 423.772 596.193C429.087 601.429 435.968 604.021 444.334 604.021C452.7 604.021 459.756 601.418 464.896 596.193C470.252 591.153 472.904 583.807 472.904 574.095C472.904 567.394 471.521 561.626 468.726 556.832C466.524 553.041 463.34 549.916 459.5 547.795H459.51ZM457.564 592.987C454.554 596.501 450.13 598.232 444.334 598.232C438.538 598.232 434.319 596.501 431.084 592.987C426.895 588.561 424.806 582.28 424.806 574.105C424.806 565.929 426.906 559.506 431.084 555.244C434.319 551.75 438.753 550.019 444.334 550.019C449.915 550.019 454.554 551.75 457.564 555.244C461.783 559.506 463.852 565.806 463.852 574.105C463.852 582.403 461.773 588.561 457.564 592.987Z" fill="#FF9149"/>
<path d="M406.876 545.941C403.784 545.603 401.756 547.181 399.708 549.926L388.813 564.628C387.174 566.81 384.512 566.851 382.833 564.628L371.804 550.387C371.272 549.701 370.688 549.045 370.053 548.461C367.893 546.474 366.008 545.941 363.633 545.941C360.847 545.941 359.885 547.734 361.503 549.926L377.682 571.851C379.29 574.054 380.59 577.947 380.59 580.59V597.607C380.59 600.189 382.556 602.299 384.963 602.299C387.369 602.299 389.345 600.189 389.345 597.607V580.59C389.345 577.947 390.656 574.054 392.274 571.851L408.177 549.967C409.764 547.754 409.057 546.177 406.876 545.941Z" fill="#FF9149"/>
<path d="M514.675 582.615C518.588 580.993 520.447 576.504 518.826 572.589C517.205 568.673 512.718 566.814 508.805 568.436C504.891 570.058 503.033 574.546 504.654 578.462C506.275 582.377 510.761 584.236 514.675 582.615Z" fill="#FF9149"/>
<path d="M219.331 318.725V369.295C219.331 379.899 209.869 375.483 209.869 382.624C209.869 391.035 229.028 391.168 234.445 391.168C240.282 391.168 258.888 390.779 258.888 382.357C258.888 374.868 249.446 381.589 249.057 365.412V357.923C249.057 356.509 249.58 355.833 251.126 355.833C254.628 355.833 258.499 356.499 262.39 356.499C280.361 356.499 296.663 346.162 296.663 326.85C296.663 307.537 279.695 298.122 262.093 298.122C259.287 298.122 245.309 300.069 226.56 300.069C223.314 300.069 220.221 299.823 216.986 299.823C212.961 299.823 207.268 300.847 207.268 306.052C207.268 314.187 219.32 309.023 219.32 318.735L219.331 318.725ZM253.973 312.496C262.636 312.496 266.762 319.227 266.762 327.372C266.762 335.517 263.404 341.725 254.863 341.725C247.89 341.725 249.047 338.734 249.047 336.009V316.625C249.047 314.033 248.924 312.486 253.962 312.486L253.973 312.496Z" fill="#FF9149"/>
<path d="M353.055 391.168C379.402 391.168 403.988 372.83 403.988 344.994C403.988 328.335 390.277 296.893 354.591 296.893C326.4 296.893 304.568 316.297 304.568 343.703C304.568 371.108 325.765 391.168 353.055 391.168ZM348.631 316.174C363.756 316.174 370.749 346.274 370.749 358.066C370.749 365.043 367.36 371.907 359.485 371.907C345.518 371.907 337.787 340.998 337.787 330.005C337.787 323.663 341.391 316.174 348.631 316.174Z" fill="#FF9149"/>
<path d="M419.635 325.21V362.359C419.635 379.335 409.856 374.612 409.856 381.394C409.856 390.933 428.401 390.933 434.637 390.933C455.762 390.933 459.039 387.419 459.039 382.716C459.039 376.436 452.352 378.29 451.308 372.287C450.662 368.609 450.376 363.394 450.376 359.634C450.376 351.397 451.41 350.997 454.318 350.997C461.476 350.997 463.698 356.878 465.142 362.851C469.166 380.083 471.788 392.111 492.626 392.111C507.372 392.111 513.382 386.855 513.382 381.937C513.382 373.946 504.924 381.261 503.347 369.121C501.525 355.054 497.459 349.03 488.346 345.649C486.779 344.983 485.079 344.471 485.079 342.525C485.079 340.967 486.001 340.568 487.189 339.902C494.49 336.398 498.268 328.817 498.268 320.989C498.268 303.634 481.167 297.108 466.463 297.108C457.994 297.108 449.516 298.03 441.18 298.03C435.804 298.03 430.459 297.108 425.114 297.108C419.768 297.108 409.764 298.03 409.764 305.222C409.764 313.306 419.656 304.956 419.656 325.19L419.635 325.21ZM449.905 330.927L450.376 318.561C450.673 314.494 450.529 311.523 455.373 311.523C462.94 311.523 464.517 318.028 464.517 324.411C464.517 332.525 461.773 337.218 453.294 337.218C448.983 337.218 449.638 334.328 449.915 330.937L449.905 330.927Z" fill="#FF9149"/>
<path d="M724.787 325.21V362.359C724.787 379.345 714.988 374.622 714.988 381.405C714.988 390.943 733.512 390.943 739.789 390.943C760.893 390.943 764.17 387.419 764.17 382.716C764.17 376.436 757.524 378.29 756.46 372.287C755.855 368.609 755.558 363.404 755.558 359.634C755.558 351.397 756.593 350.997 759.48 350.997C766.618 350.997 768.84 356.878 770.294 362.861C774.328 380.093 776.95 392.111 797.809 392.111C812.524 392.111 818.524 386.865 818.524 381.937C818.524 373.946 810.066 381.271 808.489 369.131C806.687 355.054 802.611 349.04 793.487 345.66C791.921 344.983 790.241 344.481 790.241 342.525C790.241 340.977 791.142 340.578 792.33 339.902C799.611 336.408 803.41 328.827 803.41 320.989C803.41 303.644 786.309 297.108 771.584 297.108C763.136 297.108 754.657 298.03 746.301 298.03C740.946 298.03 735.621 297.108 730.276 297.108C724.931 297.108 714.885 298.03 714.885 305.222C714.885 313.316 724.797 304.966 724.797 325.19L724.787 325.21ZM755.077 330.937L755.569 318.561C755.866 314.494 755.702 311.523 760.545 311.523C768.113 311.523 769.649 318.039 769.649 324.411C769.649 332.525 766.925 337.228 758.426 337.228C754.156 337.228 754.79 334.339 755.087 330.948L755.077 330.937Z" fill="#FF9149"/>
<path d="M521.503 331.952C531.948 331.952 534.815 316.707 540.611 316.707C542.433 316.707 545.147 316.584 544.625 330.159L543.59 358.732C543.478 361.949 542.956 369.725 541.665 372.42C539.075 377.307 531.077 374.602 531.077 381.466C531.077 391.435 555.223 391.179 561.818 391.179C585.994 391.179 588.421 385.462 588.421 381.466C588.421 372.42 576.563 379.786 576.563 364.408V324.719C576.563 323.694 576.031 316.707 581.079 316.707C587.663 316.707 587.53 331.952 598.784 331.952C605.368 331.952 608.707 327.7 608.707 321.245C608.707 307.261 598.282 297.292 593.234 297.292C590.776 297.292 589.742 297.702 587.94 298.194C586.004 298.604 583.404 299.116 577.843 299.116H546.069C540.887 299.116 537.395 298.604 534.938 298.194C532.48 297.702 531.077 297.292 530.145 297.292C522.793 297.292 513.485 311.646 513.485 322.639C513.485 327.28 516.465 331.941 521.503 331.941V331.952Z" fill="#FF9149"/>
<path d="M626.647 323.919C627.958 347.504 627.825 345.158 626.258 368.865C625.357 382.696 616.489 376.969 616.489 384.13C616.489 385.82 616.612 389.713 625.203 389.713H678.697C683.141 389.713 686.797 390.123 689.654 390.41C692.408 390.779 694.487 391.179 695.378 391.179C700.6 391.179 707.625 375.278 707.625 366.416C707.625 362.759 705.546 358.066 701.379 358.066C690.719 358.066 698.266 376.436 671.539 376.436C657.889 376.436 656.579 377.337 656.579 358.312C656.579 354.183 656.435 349.215 661.914 349.215C675.072 349.215 667.003 362.871 675.072 362.871C683.141 362.871 683.766 347.247 683.766 341.9C683.766 336.552 683.254 322.106 675.727 322.106C666.46 322.106 673.884 336.572 663.982 336.572C656.046 336.572 655.657 336.316 655.657 328.776C655.657 313.756 654.213 311.144 668.662 311.144C693.432 311.144 685.066 323.663 695.357 323.663C700.457 323.663 702.106 318.571 702.106 314.289C702.106 308.552 699.034 295.797 691.599 295.797C689.521 295.797 687.043 298.389 669.583 298.389H632.085C626.75 298.389 615.803 297.087 615.803 305.007C615.803 314.279 625.705 303.993 626.616 323.909L626.647 323.919Z" fill="#FF9149"/>
<path d="M566.221 139.835C569.498 139.835 572.232 139.364 574.525 138.545C576.205 137.94 577.761 136.936 577.761 136.936C578.591 136.393 579.297 135.809 579.901 135.215L580.035 135.071C582.318 132.756 582.953 130.461 582.953 130.461C582.973 130.379 582.994 130.297 583.014 130.215C583.854 125.728 580.014 125.933 580.014 125.933C578.765 125.933 577.966 127.326 577.966 127.326C577.495 128.074 576.86 130.164 574.648 131.988C572.58 133.514 569.692 134.344 566.221 134.344C561.388 134.344 557.517 132.582 554.598 129.088C551.148 124.662 549.376 118.269 549.376 109.92C549.376 103.609 550.441 98.353 552.53 94.132C554.639 89.87 558.612 86.7965 563.302 86.0384C564.316 85.8745 565.381 85.7925 566.508 85.7925C569.979 85.7925 572.693 86.4892 574.648 87.8722C576.379 89.1836 576.625 90.2081 577.229 91.4478C577.505 92.0318 578.365 93.2202 578.857 93.5173C580.762 94.6238 583.608 92.3801 582.963 89.3783C582.963 89.3783 582.84 88.8455 582.246 87.78C580.229 84.1635 576.758 81.592 572.723 80.6699C570.808 80.2294 568.637 80.0143 566.221 80.0143C559.063 80.0143 553.237 82.5345 548.792 87.5649C544.164 92.3801 541.839 99.8283 541.839 109.93C541.839 120.032 544.164 127.254 548.792 132.295C553.237 137.336 559.063 139.846 566.221 139.846V139.835Z" fill="#FF9149"/>
<path d="M205.435 139.835C212.019 139.835 217.395 137.653 221.501 133.176C221.501 133.176 221.512 133.166 221.522 133.156C222.392 132.254 223.57 130.728 223.57 130.728C227.359 125.769 229.222 118.833 229.222 109.92C229.222 101.006 227.011 93.1792 222.525 87.5546C218.102 82.5243 212.398 80.004 205.425 80.004C198.451 80.004 193.034 82.5243 188.57 87.5546C183.931 92.3698 181.617 99.818 181.617 109.92C181.617 120.021 183.839 126.978 188.283 131.988C192.737 137.264 198.461 139.835 205.435 139.835ZM194.386 91.038C197.11 87.5546 200.776 85.7822 205.435 85.7822C210.094 85.7822 213.924 87.5444 216.463 91.038C219.955 95.2999 221.706 101.611 221.706 109.92C221.706 118.228 219.955 124.345 216.463 128.832C213.924 132.305 210.268 134.037 205.435 134.037C200.602 134.037 197.11 132.305 194.386 128.832C190.894 124.345 189.153 118.034 189.153 109.92C189.153 101.806 190.894 95.2897 194.386 91.038Z" fill="#FF9149"/>
</svg>
