<svg width="161" height="17" viewBox="0 0 161 17" fill="none" xmlns="http://www.w3.org/2000/svg">
<path d="M10.5943 0.474554H14.2495L9.08496 10.5203V16.5565H5.83201V10.5203L0.5 0.474554H4.28928L7.50883 7.48637L10.5943 0.474554Z" fill="#EEC549"/>
<path d="M27.6974 15.1155C26.5236 16.3691 24.8467 16.9962 22.6336 16.9962C20.4204 16.9962 18.7436 16.3691 17.5697 15.1155C15.9926 13.5832 15.222 11.3892 15.222 8.49874C15.222 5.57357 15.9926 3.34487 17.5692 1.88202C18.7431 0.628377 20.4199 0.00129582 22.6331 0.00129582C24.8462 0.00129582 26.523 0.628377 27.6969 1.88202C29.2381 3.34487 30.0447 5.57357 30.0447 8.49874C30.0113 11.3892 29.2402 13.5832 27.6974 15.1155ZM25.6507 12.6776C26.3884 11.7025 26.7907 10.3096 26.7907 8.49874C26.7907 6.68792 26.4218 5.29498 25.6507 4.31993C25.2818 3.86294 24.8164 3.49455 24.2885 3.24154C23.7606 2.98853 23.1834 2.85725 22.5989 2.85725C22.0144 2.85725 21.4372 2.98853 20.9093 3.24154C20.3814 3.49455 19.916 3.86294 19.5471 4.31993C18.7765 5.29498 18.4071 6.68792 18.4071 8.49874C18.4071 10.3096 18.776 11.7025 19.5471 12.6776C19.9039 13.1482 20.3668 13.5264 20.8975 13.7808C21.4281 14.0351 22.0113 14.1584 22.5987 14.1404C23.1872 14.1659 23.7729 14.046 24.3049 13.791C24.8369 13.5361 25.2989 13.1538 25.6507 12.6776Z" fill="#EEC549"/>
<path d="M36.8418 11.6005C36.8863 12.1925 37.0955 12.7598 37.4455 13.2373C37.9818 13.8991 38.8875 14.2471 40.1955 14.2471C40.8435 14.2602 41.4893 14.1661 42.1071 13.9685C42.5133 13.8575 42.8702 13.6113 43.1198 13.2698C43.3695 12.9283 43.497 12.5117 43.4818 12.0878C43.4871 11.8429 43.4277 11.601 43.3098 11.3868C43.192 11.1727 43.0198 10.9939 42.8109 10.8688C42.1354 10.5113 41.4126 10.2533 40.6645 10.1024L38.9877 9.71924C37.7995 9.50472 36.655 9.0928 35.6007 8.50029C34.5609 7.76912 34.0245 6.58435 34.0245 5.01742C34.0062 4.34239 34.1346 3.6715 34.4009 3.05184C34.6671 2.43217 35.0647 1.87877 35.5657 1.43047C36.5716 0.490108 38.083 0.00232104 40.0593 0.00232104C41.5794 -0.037703 43.0683 0.440906 44.2848 1.36057C44.8703 1.82288 45.3416 2.41571 45.6616 3.09252C45.9816 3.76933 46.1416 4.51169 46.1291 5.26131H43.0102C43.0097 4.8372 42.8937 4.42137 42.6749 4.05908C42.4562 3.69679 42.143 3.40194 41.7696 3.2066C41.1774 2.90748 40.5199 2.76376 39.858 2.78872C39.1397 2.75364 38.4273 2.93557 37.8123 3.3112C37.5701 3.46785 37.3719 3.68472 37.237 3.94092C37.102 4.19713 37.0348 4.48404 37.0417 4.77404C37.0301 5.03738 37.0934 5.29857 37.2241 5.52689C37.3548 5.75521 37.5474 5.94117 37.7794 6.0629C38.435 6.35893 39.121 6.58088 39.8251 6.72468L42.5417 7.38645C43.5104 7.58088 44.4257 7.98494 45.2244 8.57071C45.6923 8.96939 46.0606 9.47346 46.2994 10.0422C46.5382 10.6109 46.6409 11.2283 46.5991 11.8444C46.6142 12.5391 46.4743 13.2283 46.1897 13.8612C45.9052 14.4942 45.4833 15.0546 44.9552 15.5012C43.8486 16.4765 42.3061 16.9641 40.3275 16.9641C38.2818 16.9641 36.7057 16.4763 35.5318 15.5359C34.9537 15.0652 34.4943 14.4632 34.1913 13.7792C33.8883 13.0952 33.7501 12.3486 33.7882 11.6005H36.8418Z" fill="#EEC549"/>
<path d="M49.5824 16.5565V0.474554H52.8019V6.61436H58.8049V0.474554H62.0244V16.5565H58.8049V9.37021H52.8019V16.5565H49.5824Z" fill="#EEC549"/>
<path d="M69.0245 0.474554H65.805V16.5565H69.0245V0.474554Z" fill="#EEC549"/>
<path d="M81.855 0.823565C82.9303 1.19467 83.859 1.90404 84.5043 2.84721C85.0297 3.63041 85.4047 4.50599 85.6098 5.42855C85.8036 6.29898 85.9047 7.18775 85.9114 8.0798C85.9725 9.97159 85.545 11.8469 84.6707 13.5221C84.1777 14.4692 83.4266 15.2546 82.5058 15.7861C81.5849 16.3176 80.5327 16.573 79.4728 16.5224H72.7666V0.474554H79.4399C80.2567 0.480177 81.0695 0.597587 81.855 0.823565ZM75.9188 3.26561V13.7665H78.9036C80.4448 13.7665 81.4856 12.9991 82.0887 11.4291C82.4439 10.446 82.6144 9.40488 82.5917 8.3589C82.5917 6.71896 82.3569 5.46324 81.8539 4.59123C81.351 3.71922 80.3785 3.26561 78.9026 3.26561H75.9188Z" fill="#EEC549"/>
<path d="M92.1866 0.474554H95.8418L101.308 16.5565H97.7868L96.7809 13.2425H91.0785L90.0387 16.5565H86.6532L92.1866 0.474554ZM91.9518 10.4866H95.9076L93.9626 4.17232L91.9518 10.4866Z" fill="#EEC549"/>
<path d="M107.826 9.81659C108.442 8.98481 109.218 8.28554 110.106 7.7598L110.442 7.55267C110.018 7.07227 109.668 6.53132 109.402 5.94743C109.164 5.40918 109.039 4.82763 109.033 4.23862C109.002 3.72234 109.089 3.20585 109.287 2.72853C109.484 2.2512 109.787 1.82565 110.173 1.48432C111.015 0.799708 112.077 0.452158 113.158 0.508231C114.169 0.474368 115.155 0.836607 115.908 1.51902C116.264 1.84282 116.545 2.24196 116.73 2.68793C116.916 3.1339 117.001 3.61567 116.981 4.0988C117.022 4.9151 116.799 5.72277 116.344 6.39948C115.824 7.07103 115.173 7.62854 114.432 8.03787L116.645 10.8269C116.893 10.4453 117.096 10.0358 117.249 9.60687C117.379 9.15235 117.458 8.6846 117.484 8.21238H120.133C120.083 9.23195 119.856 10.2348 119.462 11.1754C119.184 11.8346 118.823 12.4555 118.389 13.0229L121.206 16.5089H117.584L116.511 15.1491C116.067 15.5817 115.572 15.9564 115.035 16.2645C114.174 16.7069 113.219 16.9341 112.252 16.9268C111.567 16.9612 110.883 16.852 110.242 16.6059C109.601 16.3599 109.018 15.9825 108.529 15.4976C108.108 15.078 107.772 14.5787 107.542 14.0284C107.312 13.4781 107.192 12.8874 107.188 12.2902C107.113 11.416 107.338 10.5422 107.825 9.81503M110.743 13.6847C110.95 13.9025 111.2 14.074 111.478 14.1881C111.755 14.3022 112.053 14.3563 112.352 14.347C112.844 14.3557 113.329 14.2356 113.761 13.9985C114.153 13.7959 114.514 13.5376 114.834 13.2316L111.95 9.5701C111.371 9.9299 110.86 10.3903 110.441 10.9299C110.203 11.3175 110.075 11.7638 110.072 12.2198C110.109 12.7747 110.348 13.2964 110.743 13.6842M112.051 5.07334C112.308 5.46173 112.588 5.8342 112.889 6.18873C113.224 5.96051 113.538 5.70395 113.829 5.42184C114 5.25476 114.136 5.05424 114.228 4.83248C114.321 4.61073 114.367 4.37238 114.365 4.13194C114.371 3.79787 114.252 3.47383 114.029 3.22576C113.909 3.08939 113.758 2.9836 113.589 2.91695C113.42 2.85029 113.238 2.82463 113.057 2.84205C112.781 2.83718 112.51 2.92276 112.286 3.08595C112.106 3.19801 111.96 3.35851 111.866 3.54941C111.771 3.74031 111.731 3.95406 111.75 4.16664C111.763 4.49147 111.868 4.80583 112.052 5.07283" fill="#EEC549"/>
<path d="M129.715 2.15593C130.323 1.50246 131.062 0.987285 131.883 0.644829C132.704 0.302372 133.589 0.14052 134.477 0.170084C137.059 0.170084 138.937 1.04106 140.111 2.8177C140.73 3.70063 141.101 4.73559 141.184 5.8133H137.966C137.831 5.17917 137.556 4.58384 137.161 4.07135C136.809 3.70734 136.383 3.42585 135.911 3.24684C135.439 3.06784 134.934 2.99572 134.431 3.03561C133.929 3.07549 133.441 3.2264 133.003 3.47763C132.565 3.72885 132.187 4.07423 131.896 4.48923C131.225 5.46446 130.89 6.85792 130.89 8.6696C130.89 10.482 131.226 11.805 131.93 12.7086C132.235 13.1367 132.638 13.4839 133.105 13.7205C133.573 13.9571 134.09 14.0762 134.613 14.0674C135.097 14.0938 135.582 14.0033 136.025 13.8033C136.468 13.6034 136.858 13.2998 137.161 12.9178C137.554 12.3658 137.829 11.737 137.966 11.0718H141.186C140.975 12.6976 140.231 14.2058 139.073 15.3567C138.492 15.9104 137.807 16.3407 137.058 16.622C136.309 16.9032 135.512 17.0298 134.713 16.9941C132.5 16.9941 130.789 16.2624 129.515 14.7649C128.241 13.2673 127.637 11.2463 127.637 8.63387C127.534 5.84696 128.274 3.68713 129.716 2.15438" fill="#EEC549"/>
<path d="M153.994 15.1362C153.022 16.3194 151.546 16.9278 149.601 16.9278C147.623 16.9278 146.181 16.3194 145.208 15.1362C144.235 13.9114 143.724 12.3782 143.766 10.8092C143.729 9.24119 144.24 7.7098 145.208 6.48233C146.181 5.26545 147.623 4.65701 149.601 4.65701C151.58 4.65701 153.022 5.26545 153.994 6.48233C154.963 7.7098 155.473 9.24119 155.436 10.8092C155.468 12.3765 154.958 13.9063 153.994 15.1362ZM151.58 13.4791C152.093 12.6883 152.34 11.752 152.284 10.8087C152.34 9.86546 152.093 8.92917 151.58 8.13832C151.343 7.8303 151.037 7.58368 150.687 7.41903C150.337 7.25437 149.953 7.17644 149.567 7.19175C149.18 7.16887 148.794 7.24342 148.442 7.40866C148.091 7.57391 147.786 7.82466 147.555 8.13832C147.037 8.92708 146.79 9.86496 146.851 10.8087C146.79 11.7525 147.037 12.6904 147.555 13.4791C147.791 13.7872 148.097 14.0338 148.447 14.1984C148.797 14.3631 149.181 14.441 149.567 14.4257C149.954 14.4486 150.341 14.374 150.692 14.2088C151.043 14.0435 151.348 13.7928 151.58 13.4791Z" fill="#EEC549"/>
<path d="M158.924 16.5902C159.794 16.5902 160.5 15.8789 160.5 15.0015C160.5 14.1241 159.794 13.4128 158.924 13.4128C158.053 13.4128 157.348 14.1241 157.348 15.0015C157.348 15.8789 158.053 16.5902 158.924 16.5902Z" fill="#EEC549"/>
</svg>
