<svg width="80" height="80" viewBox="0 0 80 80" fill="none" xmlns="http://www.w3.org/2000/svg">
<mask id="mask0_2020_2484" style="mask-type:alpha" maskUnits="userSpaceOnUse" x="0" y="0" width="80" height="80">
<rect width="80" height="80" rx="4" fill="#D9D9D9"/>
</mask>
<g mask="url(#mask0_2020_2484)">
<path d="M81.8956 -2.03827H-2.03882V81.8962H81.8956V-2.03827Z" fill="black"/>
<path d="M16.8765 33.7287C15.3108 34.1067 14.088 35.3286 13.7089 36.8941C13.5282 37.6009 12.4288 45.0539 12.4288 45.0539H11.8188L12.6473 38.846C12.8754 37.5932 13.04 36.3297 13.1406 35.0604C13.2432 34.3936 12.7858 33.7699 12.119 33.6674C12.0157 33.6514 11.9108 33.6489 11.8068 33.6597C10.9367 33.6652 10.3902 34.7137 10.3902 34.7137C10.1488 35.1329 10.0017 35.5996 9.95936 36.0815C9.93103 36.3633 9.94212 36.6476 9.99221 36.9263C10.071 37.0901 10.0657 37.055 10.1247 36.9105C10.1111 36.3712 10.1676 35.8326 10.2929 35.3079C10.4406 34.8884 10.9598 34.0617 11.7137 34.0699C12.4332 34.078 12.3882 34.3201 11.416 40.849C11.3414 41.3648 11.0748 44.9489 10.8853 45.0485C10.6953 45.1461 9.82297 45.1756 9.85254 45.2369C9.88428 45.2983 9.81975 45.4647 9.98238 45.4647C10.6912 45.3381 11.4125 45.2951 12.1314 45.3366C13.8617 45.3289 14.135 45.4811 14.2115 45.4033C14.2915 45.3267 14.1196 45.2063 13.9756 45.1834C13.7615 45.1505 12.7524 45.0628 12.7524 45.0628C12.7524 45.0628 13.0793 42.0918 13.1482 41.9888C13.1777 41.9417 13.3131 41.794 13.3765 41.9417C13.6563 42.6044 14.8489 43.2341 15.9276 43.2341C16.5013 43.2341 16.8163 43.2483 17.8472 42.3076C18.8788 41.3647 19.2659 37.1902 19.312 35.9007C19.3541 34.7082 18.4452 33.227 16.8765 33.7287ZM18.0657 38.1786C17.764 40.3944 17.3692 41.9188 17.1266 42.2244C16.882 42.5277 16.693 42.8255 15.6083 42.8255C14.6194 42.8348 13.7117 42.2798 13.2692 41.3953C13.4083 39.7607 13.6619 38.1378 14.028 36.5387C14.3243 35.276 16.215 34.0594 16.9542 34.0594C17.5514 33.9859 18.1086 34.3724 18.2491 34.9574C18.4013 35.4124 18.3708 35.9621 18.0657 38.1786Z" fill="white"/>
<path d="M26.9948 33.9559C21.5211 34.129 20.6488 38.511 20.6181 40.3639C20.5875 42.2473 21.2872 45.9839 26.1757 45.8896C29.4259 45.8305 31.984 43.6425 32.1876 39.7249C32.3399 36.8108 30.8516 33.8345 26.9948 33.9559ZM31.2163 39.8163C31.0093 43.3041 29.6065 45.6783 25.903 45.6477C22.4392 45.6202 21.7723 43.5505 21.8031 40.0616C21.8106 39.1462 21.7668 34.2013 26.9028 34.2013C30.0314 34.2013 31.397 36.75 31.2163 39.8163Z" fill="white"/>
<path d="M32.7027 45.2764C32.6493 45.2991 32.6244 45.3608 32.6471 45.4142C32.6602 45.4452 32.6875 45.4681 32.7203 45.4756C32.8166 45.4974 33.1189 45.4646 34.9827 45.4646C36.8421 45.4646 36.8202 45.6278 36.8202 45.6278C36.8202 45.6278 36.9757 45.6169 36.9122 45.4919C36.4419 45.3301 35.9553 45.2197 35.4612 45.1625C35.4612 45.1625 35.8895 41.2245 36.2136 39.8086C36.9867 36.4172 38.2701 34.7252 39.6883 34.3803C40.813 34.737 41.556 35.807 41.4974 36.9854C41.4697 38.6158 40.2542 39.981 38.638 40.1969C38.0923 40.2332 37.5452 40.2404 36.9987 40.2187C38.1935 43.0435 39.2743 45.5348 40.1515 45.8677C40.8574 46.2204 41.7157 45.9786 42.1336 45.3092C42.1336 45.2391 42.0646 45.1153 41.9726 45.2172C41.7358 45.6781 41.1701 45.8599 40.7091 45.6229C40.5791 45.5562 40.4666 45.46 40.3804 45.3421C40.1274 45.0924 39.0136 42.4303 38.1825 40.631C39.6499 40.3562 41.9047 39.5376 42.2934 36.5979C42.4775 35.1983 41.1699 33.8345 40.1143 33.9559C38.534 34.1399 36.7741 35.6277 36.0733 39.5431C35.8227 40.9596 35.1755 45.1953 35.1755 45.1953H34.641C34.641 45.1953 35.8884 36.1281 35.9737 35.3243C36.0132 34.9273 35.6638 33.8212 34.8556 33.8755C33.7447 34.03 32.8682 34.8978 32.7027 36.0071C32.656 36.3711 32.6722 36.7404 32.7508 37.0989C32.7508 37.0989 32.7773 37.228 32.8561 37.1158C32.936 37.0009 32.7882 36.0447 32.9918 35.5964C33.2196 35.097 33.949 34.1399 34.618 34.153C35.4372 34.1734 35.1645 35.3079 35.0418 36.2338C34.8962 37.349 33.707 45.1461 33.707 45.1461L32.7027 45.2764Z" fill="white"/>
<path d="M60.3993 45.2764C60.3007 45.3355 60.3183 45.4527 60.4136 45.4757C60.511 45.4975 60.8132 45.4646 62.6749 45.4646C64.5355 45.4646 64.5124 45.6279 64.5124 45.6279C64.5124 45.6279 64.6668 45.617 64.6055 45.492C64.1341 45.3303 63.6465 45.2198 63.1513 45.1625C63.1513 45.1625 63.5817 41.2245 63.9058 39.8086C64.68 36.4172 65.9613 34.7253 67.3836 34.3803C68.5069 34.7381 69.2479 35.8082 69.1876 36.9855C69.1613 38.6156 67.9463 39.9812 66.3305 40.1969C65.7843 40.2332 65.2367 40.2405 64.6899 40.2187C65.8866 43.0436 66.9666 45.5348 67.8446 45.8677C68.5502 46.2207 69.4086 45.9787 69.8256 45.3093C69.8256 45.2391 69.76 45.1153 69.6656 45.2172C69.4289 45.6781 68.8636 45.8599 68.4026 45.6231C68.2728 45.5563 68.16 45.46 68.0735 45.3421C67.8197 45.0924 66.7036 42.4303 65.8748 40.631C67.3443 40.3562 69.5967 39.5376 69.9856 36.5979C70.1699 35.1983 68.8623 33.8345 67.8053 33.9559C66.2276 34.14 64.4664 35.6277 63.7656 39.5431C63.5159 40.9597 62.8687 45.1954 62.8687 45.1954H62.3343C62.3343 45.1954 63.5783 36.1281 63.666 35.3243C63.7065 34.9273 63.3572 33.8212 62.549 33.8755C61.4383 34.0293 60.5625 34.8978 60.3993 36.0071C60.3524 36.3709 60.3672 36.74 60.4431 37.0989C60.4431 37.0989 60.4695 37.228 60.5504 37.1158C60.6294 37.0009 60.4815 36.0447 60.6863 35.5964C60.915 35.097 61.6423 34.1399 62.3114 34.153C63.1305 34.1734 62.8588 35.3079 62.7363 36.2338C62.5884 37.349 61.3981 45.1461 61.3981 45.1461L60.3993 45.2764Z" fill="white"/>
<path d="M49.1923 35.5216C48.9233 35.8524 48.7032 36.2201 48.5385 36.6134C48.3711 37.035 47.0668 45.3598 47.0668 45.3598L45.7002 45.5645C45.7002 45.5645 45.6543 45.7233 45.7768 45.708C46.0144 45.6786 46.9332 45.6204 47.5794 45.6204C48.2221 45.6204 48.9492 45.7025 49.062 45.7025C49.1737 45.7025 49.1737 45.6751 49.1169 45.6204C48.8194 45.5092 48.5099 45.4335 48.1947 45.3947C47.9779 45.0542 49.3852 36.6966 49.4935 36.3253C49.5633 36.0936 49.6455 35.8659 49.7398 35.6431C50.3753 35.5489 51.0244 35.6374 51.6114 35.8983C51.8709 35.9896 52.4568 34.289 52.4568 34.289C52.4568 34.289 52.0791 34.9445 51.6968 34.9445C50.4375 34.9445 46.9594 33.8816 46.3825 33.9561C43.9984 34.2693 43.4377 37.0043 43.4377 37.6011C43.4463 38.2826 43.6433 38.9483 44.0071 39.5247C44.0838 39.5925 44.1945 39.5535 44.1363 39.4233C43.7225 38.8801 43.5215 38.2044 43.5713 37.5233C43.5699 36.315 44.3178 35.2324 45.4484 34.806C46.3583 34.4341 49.0686 35.4471 49.1923 35.5216Z" fill="white"/>
<path d="M54.4515 36.9714C54.4855 37.8896 54.0979 39.1347 56.3668 39.3089C56.6405 39.3292 56.9362 39.3307 57.0041 39.3532C57.072 39.3756 57.072 39.4682 57.0041 39.5148C56.7866 39.5614 56.5634 39.5763 56.3416 39.5591C55.782 39.5722 55.1895 39.2202 54.9212 39.2607C54.2325 39.3614 53.1867 40.1356 53.007 42.8897C52.8789 44.4614 54.0491 45.8393 55.6207 45.9674C55.6951 45.9735 55.7697 45.9766 55.8444 45.9768C56.773 45.9517 58.9556 45.8892 59.4712 43.1264C59.5129 42.9007 59.5906 42.9259 59.595 43.052C59.4412 44.9599 57.7697 46.3819 55.8617 46.228C55.8476 46.2269 55.8333 46.2256 55.8192 46.2243C53.9314 46.1324 51.993 45.2147 52.0314 42.7322C51.947 41.0916 52.9949 39.6058 54.5686 39.1347C54.6595 39.0876 54.5512 38.9344 54.5512 38.9344C53.7925 38.4551 53.3689 37.5892 53.456 36.696C53.4518 34.8224 55.3856 33.8208 56.4599 33.8996C59.1188 34.1061 59.6027 36.0078 59.1691 36.2563C59.007 36.3477 58.5767 35.9147 58.4146 35.596C58.2207 35.2012 58.3358 34.9329 58.258 34.7555C57.852 34.3486 57.2881 34.1397 56.715 34.184C55.6834 34.184 54.376 34.9549 54.4515 36.9714Z" fill="white"/>
</g>
</svg>
